# xmcd
#
# Track frame offsets: 
#        150
#        21768
#        46205
#        63001
#        85355
#        114142
#        134510
#        150018
#        184983
#
# Disc length: 2712 seconds
#
# Revision: 0
# Processed by: cddbd v1.5.2PL0 Copyright (c) Steve Scherf et al.
# Submitted via: ExactAudioCopy v0.99pb5
#
DISCID=640a9609
DTITLE=Ashes of Grisum - Completed Works Volume 1
DYEAR=1999
DGENRE=Blues
TTITLE0=Tropic of Cancer 
TTITLE1=Out of the Womb 
TTITLE2=a Judas Kiss 
TTITLE3=Fool for Nothing 
TTITLE4=Gail
TTITLE5=Fall to Me
TTITLE6=Hell's Ditch (Holy Water)
TTITLE7=Morning in New Orleans
TTITLE8=the Procession
EXTD=
EXTT0=
EXTT1=
EXTT2=
EXTT3=
EXTT4=
EXTT5=
EXTT6=
EXTT7=
EXTT8=
PLAYORDER=
